# xmcd
#
# Track frame offsets:
#	182
#	14617
#	31520
#	47557
#	63182
#	78810
#	96402
#	109810
#	126505
#	149330
#	170280
#	181817
#	201627
#
# Disc length: 2951 seconds
#
# Revision: 3
# Processed by: cddbd v1.4PL0 Copyright (c) Steve Scherf et al.
# Submitted via: EasyCDDAExtractor 4.6.0.1
#
DISCID=ae0b850d
DTITLE=Patrick Verbeke - Blues and Ladies
DYEAR=1992
DGENRE=Blues
TTITLE0=De quoi j'vais m'plaindre
TTITLE1=Beal Street en Mai
TTITLE2=A la Dérive
TTITLE3=Eh Bill
TTITLE4=Caresses
TTITLE5=Bluesy Lady
TTITLE6=Un seul Jour
TTITLE7=Entre Deux Eaux
TTITLE8=Emily
TTITLE9=La 3ème mi-temps
TTITLE10=Open-Moi
TTITLE11=Spoonfull
TTITLE12=Roy's Gone
EXTD=
EXTT0=
EXTT1=
EXTT2=
EXTT3=
EXTT4=
EXTT5=
EXTT6=
EXTT7=
EXTT8=
EXTT9=
EXTT10=
EXTT11=
EXTT12=
PLAYORDER=
